adventprofmm_thn_it_krn.ufo
<glyph name="grave" format="1">
  <advance width="219"/>
  <unicode hex="0060"/>
  <outline>
    <contour>
      <point x="220" y="727" type="line" smooth="yes"/>
      <point x="218" y="736"/>
      <point x="209" y="741"/>
      <point x="200" y="737" type="curve" smooth="yes"/>
      <point x="192" y="732"/>
      <point x="190" y="722"/>
      <point x="192" y="714" type="curve"/>
      <point x="231" y="613" type="line"/>
      <point x="252" y="613" type="line"/>
    </contour>
  </outline>
</glyph>
<glyph name="asciitilde" format="1">
  <advance width="337"/>
  <unicode hex="007E"/>
  <outline>
    <contour>
      <point x="313" y="307" type="curve"/>
      <point x="305" y="322" type="line"/>
      <point x="280" y="302"/>
      <point x="258" y="296"/>
      <point x="237" y="297" type="curve" smooth="yes"/>
      <point x="192" y="299"/>
      <point x="155" y="337"/>
      <point x="105" y="337" type="curve" smooth="yes"/>
      <point x="80" y="337"/>
      <point x="54" y="329"/>
      <point x="22" y="304" type="curve"/>
      <point x="30" y="287" type="line"/>
      <point x="56" y="309"/>
      <point x="79" y="317"/>
      <point x="99" y="317" type="curve" smooth="yes"/>
      <point x="142" y="317"/>
      <point x="186" y="278"/>
      <point x="238" y="278" type="curve" smooth="yes"/>
      <point x="260" y="278"/>
      <point x="285" y="286"/>
    </contour>
  </outline>
</glyph>
<glyph name="overscore" format="1">
  <advance width="374"/>
  <unicode hex="00AF"/>
  <outline>
    <contour>
      <point x="415" y="675" type="line"/>
      <point x="195" y="675" type="line"/>
      <point x="191" y="656" type="line"/>
      <point x="411" y="656" type="line"/>
    </contour>
  </outline>
</glyph>
<glyph name="acute" format="1">
  <advance width="219"/>
  <unicode hex="00B4"/>
  <outline>
    <contour>
      <point x="255" y="686" type="line" smooth="yes"/>
      <point x="262" y="694"/>
      <point x="264" y="705"/>
      <point x="256" y="710" type="curve" smooth="yes"/>
      <point x="248" y="714"/>
      <point x="238" y="710"/>
      <point x="233" y="701" type="curve" smooth="yes"/>
      <point x="161" y="586" type="line"/>
      <point x="182" y="586" type="line"/>
    </contour>
  </outline>
</glyph>
<glyph name="ldot" format="1">
  <advance width="141"/>
  <unicode hex="0140"/>
  <outline>
    <contour>
      <point x="1" y="0" type="line"/>
      <point x="21" y="0" type="line"/>
      <point x="144" y="698" type="line"/>
      <point x="124" y="698" type="line"/>
    </contour>
  </outline>
</glyph>
<glyph name="circumflex" format="1">
  <advance width="399"/>
  <unicode hex="02C6"/>
  <outline>
    <contour>
      <point x="425" y="650" type="line"/>
      <point x="325" y="769" type="line"/>
      <point x="182" y="650" type="line"/>
      <point x="194" y="636" type="line"/>
      <point x="320" y="739" type="line"/>
      <point x="408" y="636" type="line"/>
    </contour>
  </outline>
</glyph>
<glyph name="breve" format="1">
  <advance width="381"/>
  <unicode hex="02D8"/>
  <outline>
    <contour>
      <point x="392" y="702" type="line"/>
      <point x="372" y="702" type="line"/>
      <point x="371" y="695" type="line" smooth="yes"/>
      <point x="362" y="645"/>
      <point x="314" y="604"/>
      <point x="263" y="604" type="curve" smooth="yes"/>
      <point x="213" y="604"/>
      <point x="179" y="645"/>
      <point x="188" y="695" type="curve" smooth="yes"/>
      <point x="189" y="702" type="line"/>
      <point x="167" y="702" type="line"/>
      <point x="166" y="695" type="line" smooth="yes"/>
      <point x="155" y="632"/>
      <point x="197" y="582"/>
      <point x="259" y="582" type="curve" smooth="yes"/>
      <point x="321" y="582"/>
      <point x="380" y="632"/>
      <point x="391" y="695" type="curve" smooth="yes"/>
    </contour>
  </outline>
</glyph>
<glyph name="dotaccent" format="1">
  <advance width="168"/>
  <unicode hex="02D9"/>
  <outline>
    <contour>
      <point x="158" y="732" type="curve" smooth="yes"/>
      <point x="149" y="732"/>
      <point x="139" y="724"/>
      <point x="137" y="714" type="curve" smooth="yes"/>
      <point x="136" y="705"/>
      <point x="142" y="697"/>
      <point x="151" y="697" type="curve" smooth="yes"/>
      <point x="160" y="697"/>
      <point x="169" y="705"/>
      <point x="170" y="714" type="curve" smooth="yes"/>
      <point x="172" y="724"/>
      <point x="167" y="732"/>
    </contour>
  </outline>
</glyph>
<glyph name="gravecomb" format="1">
  <advance width="108"/>
  <unicode hex="0300"/>
  <outline>
    <contour>
      <point x="69" y="613" type="line"/>
      <point x="90" y="613" type="line"/>
      <point x="58" y="727" type="line"/>
      <point x="56" y="736"/>
      <point x="47" y="741"/>
      <point x="38" y="737" type="curve"/>
      <point x="30" y="732"/>
      <point x="28" y="722"/>
      <point x="30" y="714" type="curve"/>
    </contour>
  </outline>
</glyph>
<glyph name="circumflexcomb" format="1">
  <advance width="292"/>
  <unicode hex="0302"/>
  <outline>
    <contour>
      <point x="169" y="739" type="line"/>
      <point x="257" y="636" type="line"/>
      <point x="274" y="650" type="line"/>
      <point x="174" y="769" type="line"/>
      <point x="31" y="650" type="line"/>
      <point x="43" y="636" type="line"/>
    </contour>
  </outline>
</glyph>
<glyph name="tildecomb" format="1">
  <advance width="286"/>
  <unicode hex="0303"/>
  <outline>
    <contour>
      <point x="268" y="659" type="curve"/>
      <point x="263" y="676" type="line"/>
      <point x="237" y="658"/>
      <point x="220" y="653"/>
      <point x="209" y="653" type="curve" smooth="yes"/>
      <point x="174" y="652"/>
      <point x="142" y="685"/>
      <point x="99" y="684" type="curve" smooth="yes"/>
      <point x="78" y="684"/>
      <point x="56" y="678"/>
      <point x="32" y="656" type="curve"/>
      <point x="40" y="637" type="line"/>
      <point x="47" y="643"/>
      <point x="67" y="662"/>
      <point x="92" y="662" type="curve" smooth="yes"/>
      <point x="131" y="663"/>
      <point x="162" y="630"/>
      <point x="203" y="631" type="curve" smooth="yes"/>
      <point x="222" y="631"/>
      <point x="242" y="638"/>
    </contour>
  </outline>
</glyph>
<glyph name="macroncomb" format="1">
  <advance width="277"/>
  <unicode hex="0304"/>
  <outline>
    <contour>
      <point x="34" y="656" type="line"/>
      <point x="254" y="656" type="line"/>
      <point x="258" y="675" type="line"/>
      <point x="38" y="675" type="line"/>
    </contour>
  </outline>
</glyph>
<glyph name="brevecomb" format="1">
  <advance width="274"/>
  <unicode hex="0306"/>
  <outline>
    <contour>
      <point x="259" y="695" type="curve" smooth="yes"/>
      <point x="260" y="702" type="line"/>
      <point x="240" y="702" type="line"/>
      <point x="239" y="695" type="line" smooth="yes"/>
      <point x="230" y="645"/>
      <point x="182" y="604"/>
      <point x="131" y="604" type="curve" smooth="yes"/>
      <point x="81" y="604"/>
      <point x="47" y="645"/>
      <point x="56" y="695" type="curve" smooth="yes"/>
      <point x="57" y="702" type="line"/>
      <point x="35" y="702" type="line"/>
      <point x="34" y="695" type="line" smooth="yes"/>
      <point x="23" y="632"/>
      <point x="65" y="582"/>
      <point x="127" y="582" type="curve" smooth="yes"/>
      <point x="189" y="582"/>
      <point x="248" y="632"/>
    </contour>
  </outline>
</glyph>
<glyph name="dotaccentcomb" format="1">
  <advance width="86"/>
  <unicode hex="0307"/>
  <outline>
    <contour>
      <point x="54" y="732" type="curve" smooth="yes"/>
      <point x="45" y="732"/>
      <point x="35" y="724"/>
      <point x="33" y="714" type="curve"/>
      <point x="32" y="705"/>
      <point x="38" y="697"/>
      <point x="47" y="697" type="curve" smooth="yes"/>
      <point x="56" y="697"/>
      <point x="65" y="705"/>
      <point x="66" y="714" type="curve"/>
      <point x="68" y="724"/>
      <point x="63" y="732"/>
    </contour>
  </outline>
</glyph>
<glyph name="dieresiscomb" format="1">
  <advance width="246"/>
  <unicode hex="0308"/>
  <outline>
    <contour>
      <point x="54" y="724" type="curve" smooth="yes"/>
      <point x="45" y="724"/>
      <point x="36" y="716"/>
      <point x="34" y="706" type="curve" smooth="yes"/>
      <point x="32" y="697"/>
      <point x="39" y="690"/>
      <point x="48" y="690" type="curve" smooth="yes"/>
      <point x="58" y="690"/>
      <point x="66" y="697"/>
      <point x="68" y="706" type="curve" smooth="yes"/>
      <point x="70" y="716"/>
      <point x="64" y="724"/>
    </contour>
    <contour>
      <point x="212" y="724" type="curve" smooth="yes"/>
      <point x="203" y="724"/>
      <point x="195" y="716"/>
      <point x="193" y="706" type="curve" smooth="yes"/>
      <point x="191" y="697"/>
      <point x="197" y="690"/>
      <point x="206" y="690" type="curve" smooth="yes"/>
      <point x="215" y="690"/>
      <point x="224" y="697"/>
      <point x="226" y="706" type="curve" smooth="yes"/>
      <point x="228" y="716"/>
      <point x="221" y="724"/>
    </contour>
  </outline>
</glyph>
<glyph name="Iota" format="1">
  <advance width="153"/>
  <unicode hex="0399"/>
  <outline>
    <contour>
      <point x="47" y="679" type="line"/>
      <point x="133" y="676" type="line"/>
      <point x="14" y="0" type="line"/>
      <point x="33" y="0" type="line"/>
      <point x="156" y="698" type="line"/>
      <point x="51" y="698" type="line"/>
    </contour>
  </outline>
</glyph>
<glyph name="caroncomb" format="1">
  <advance width="281"/>
  <outline>
    <contour>
      <point x="25" y="705" type="line"/>
      <point x="124" y="587" type="line"/>
      <point x="267" y="706" type="line"/>
      <point x="256" y="721" type="line"/>
      <point x="129" y="617" type="line"/>
      <point x="43" y="721" type="line"/>
    </contour>
  </outline>
</glyph>
<glyph name="cedillacomb" format="1">
  <advance width="184"/>
  <outline>
    <contour>
      <point x="64" y="-46" type="curve"/>
      <point x="100" y="0" type="line"/>
      <point x="79" y="0" type="line"/>
      <point x="41" y="-46" type="line"/>
      <point x="38" y="-67" type="line"/>
      <point x="59" y="-67"/>
      <point x="79" y="-67"/>
      <point x="95" y="-67" type="curve" smooth="yes"/>
      <point x="137" y="-67"/>
      <point x="162" y="-96"/>
      <point x="155" y="-136" type="curve" smooth="yes"/>
      <point x="143" y="-199"/>
      <point x="87" y="-206"/>
      <point x="70" y="-207" type="curve" smooth="yes"/>
      <point x="18" y="-210"/>
      <point x="-21" y="-196"/>
      <point x="-21" y="-196" type="curve"/>
      <point x="-25" y="-204"/>
      <point x="-27" y="-206"/>
      <point x="-30" y="-213" type="curve"/>
      <point x="2" y="-221"/>
      <point x="22" y="-227"/>
      <point x="68" y="-226" type="curve" smooth="yes"/>
      <point x="111" y="-223"/>
      <point x="163" y="-198"/>
      <point x="174" y="-136" type="curve" smooth="yes"/>
      <point x="182" y="-86"/>
      <point x="150" y="-46"/>
      <point x="98" y="-46" type="curve" smooth="yes"/>
      <point x="93" y="-46"/>
      <point x="87" y="-46"/>
    </contour>
  </outline>
</glyph>
<glyph name="commaturnedabovecomb" format="1">
  <advance width="70"/>
  <outline>
    <contour>
      <point x="82" y="679" type="curve"/>
      <point x="74" y="685" type="line"/>
      <point x="74" y="685"/>
      <point x="31" y="661"/>
      <point x="22" y="608" type="curve" smooth="yes"/>
      <point x="20" y="598"/>
      <point x="26" y="592"/>
      <point x="36" y="592" type="curve" smooth="yes"/>
      <point x="45" y="592"/>
      <point x="53" y="598"/>
      <point x="55" y="608" type="curve"/>
      <point x="56" y="616"/>
      <point x="53" y="621"/>
      <point x="47" y="624" type="curve"/>
      <point x="51" y="639"/>
      <point x="60" y="660"/>
    </contour>
  </outline>
</glyph>
<glyph name="hungarumlautcomb" format="1">
  <advance width="248"/>
  <outline>
    <contour>
      <point x="23" y="582" type="line"/>
      <point x="44" y="582" type="line"/>
      <point x="117" y="682" type="line" smooth="yes"/>
      <point x="123" y="690"/>
      <point x="124" y="701"/>
      <point x="117" y="705" type="curve"/>
      <point x="110" y="710"/>
      <point x="99" y="705"/>
      <point x="93" y="696" type="curve" smooth="yes"/>
    </contour>
    <contour>
      <point x="134" y="582" type="line"/>
      <point x="155" y="582" type="line"/>
      <point x="229" y="682" type="line"/>
      <point x="234" y="690"/>
      <point x="236" y="701"/>
      <point x="228" y="705" type="curve"/>
      <point x="222" y="710"/>
      <point x="211" y="705"/>
      <point x="205" y="696" type="curve" smooth="yes"/>
    </contour>
  </outline>
</glyph>
<glyph name="ogonekcomb" format="1">
  <advance width="178"/>
  <outline>
    <contour>
      <point x="19" y="-123" type="curve" smooth="yes"/>
      <point x="113" y="2" type="line"/>
      <point x="114" y="11" type="line"/>
      <point x="98" y="10" type="line"/>
      <point x="97" y="3" type="line"/>
      <point x="4" y="-114" type="line" smooth="yes"/>
      <point x="-42" y="-177"/>
      <point x="-8" y="-239"/>
      <point x="67" y="-227" type="curve"/>
      <point x="81" y="-224"/>
      <point x="163" y="-198"/>
      <point x="163" y="-198" type="curve"/>
      <point x="160" y="-178" type="line"/>
      <point x="160" y="-178"/>
      <point x="120" y="-191"/>
      <point x="84" y="-204" type="curve"/>
      <point x="15" y="-224"/>
      <point x="-22" y="-177"/>
    </contour>
  </outline>
</glyph>
<glyph name="ringcomb" format="1">
  <advance width="282"/>
  <outline>
    <contour>
      <point x="168" y="773" type="curve" smooth="yes"/>
      <point x="105" y="773"/>
      <point x="45" y="723"/>
      <point x="34" y="660" type="curve" smooth="yes"/>
      <point x="23" y="596"/>
      <point x="65" y="546"/>
      <point x="128" y="546" type="curve" smooth="yes"/>
      <point x="190" y="546"/>
      <point x="250" y="596"/>
      <point x="261" y="660" type="curve" smooth="yes"/>
      <point x="272" y="723"/>
      <point x="230" y="773"/>
    </contour>
    <contour>
      <point x="164" y="754" type="curve" smooth="yes"/>
      <point x="215" y="754"/>
      <point x="251" y="712"/>
      <point x="242" y="660" type="curve" smooth="yes"/>
      <point x="233" y="607"/>
      <point x="182" y="565"/>
      <point x="131" y="565" type="curve" smooth="yes"/>
      <point x="79" y="565"/>
      <point x="44" y="607"/>
      <point x="53" y="660" type="curve" smooth="yes"/>
      <point x="62" y="712"/>
      <point x="112" y="754"/>
    </contour>
  </outline>
</glyph>
